# AST/ASF file generated using VICON BodyLanguage
# -----------------------------------------------
:version 1.10
:name VICON
:units
  mass 1.0
  length 0.45
  angle deg
:documentation
   .ast/.asf automatically generated from VICON data using
   VICON BodyBuilder and BodyLanguage model FoxedUp or BRILLIANT.MOD
:root
   order TX TY TZ RX RY RZ
   axis XYZ
   position 0 0 0  
   orientation 0 0 0 
:bonedata
  begin
     id 1 
     name lhipjoint
     direction 0.596438 -0.722117 0.35044 
     length 2.43043 
     axis 0 0 0  XYZ
  end
  begin
     id 2 
     name lfemur
     direction 0.34202 -0.939693 0  
     length 7.0339  
     axis 0 0 20  XYZ
    dof rx ry rz
    limits (-160.0 20.0)
           (-70.0 70.0)
           (-60.0 70.0)
  end
  begin
     id 3 
     name ltibia
     direction 0.34202 -0.939693 0   
     length 7.56602   
     axis 0 0 20   XYZ
    dof rx
    limits (-10.0 170.0)
  end
  begin
     id 4 
     name lfoot
     direction 0.0985677 -0.270812 0.957572   
     length 1.85172   
     axis -90 7.62852e-016 20   XYZ
    dof rx rz
    limits (-45.0 90.0)
           (-70.0 20.0)
  end
  begin
     id 5 
     name ltoes
     direction 1.53534e-011 -4.21843e-011 1   
     length 0.929904   
     axis -90 7.62852e-016 20   XYZ
    dof rx
    limits (-90.0 20.0)
  end
  begin
     id 6 
     name rhipjoint
     direction -0.585088 -0.729594 0.354068   
     length 2.40552  
     axis 0 0 0  XYZ 
  end
  begin
     id 7 
     name rfemur
     direction -0.34202 -0.939693 0   
     length 7.12573   
     axis 0 0 -20   XYZ
    dof rx ry rz
    limits (-160.0 20.0)
           (-70.0 70.0)
           (-70.0 60.0)
  end
  begin
     id 8 
     name rtibia
     direction -0.34202 -0.939693 0   
     length 7.35777   
     axis 0 0 -20   XYZ
    dof rx
    limits (-10.0 170.0)
 end
 begin
     id 9 
     name rfoot
     direction -0.120907 -0.33219 0.935431   
     length 2.0994  
     axis -90 -7.62852e-016 -20   XYZ
    dof rx rz
    limits (-45.0 90.0)
           (-20.0 70.0)
  end
  begin
     id 10 
     name rtoes
     direction -1.53577e-011 -4.21787e-011 1   
     length 1.04244   
     axis -90 -7.62852e-016 -20   XYZ
    dof rx
    limits (-90.0 20.0)
  end
  begin
     id 11 
     name lowerback
     direction 0.00268363 0.993603 -0.112896   
     length 2.15839   
     axis 0 0 0   XYZ
    dof rx ry rz
    limits (-20.0 45.0)
           (-30.0 30.0)
           (-30.0 30.0)
  end
  begin
     id 12 
     name upperback
     direction 0.0272563 0.999411 -0.0208618   
     length 2.16443   
     axis 0 0 0   XYZ
    dof rx ry rz
    limits (-20.0 45.0)
           (-30.0 30.0)
           (-30.0 30.0)
  end
  begin
     id 13 
     name thorax
     direction 0.0254655 0.999174 0.0316806   
     length 2.19003   
     axis 0 0 0   XYZ
    dof rx ry rz
    limits (-20.0 45.0)
           (-30.0 30.0)
           (-30.0 30.0)
  end
  begin
     id 14 
     name lowerneck
     direction -0.0102178 0.988048 0.15381   
     length 1.61507   
     axis 0 0 0   XYZ
    dof rx ry rz
    limits (-20.0 45.0)
           (-30.0 30.0)
           (-30.0 30.0)
  end
  begin
     id 15 
     name upperneck
     direction -0.0061965 0.994088 -0.108398   
     length 1.64042   
     axis 0 0 0   XYZ
    dof rx ry rz
    limits (-20.0 45.0)
           (-30.0 30.0)
           (-30.0 30.0)
  end
  begin
     id 16
     name head
     direction -0.00151929 0.998591 -0.0530385  
     length 1.64343  
     axis 0 0 0   XYZ
    dof rx ry rz
    limits (-20.0 45.0)
           (-30.0 30.0)
           (-30.0 30.0)
  end
  begin
     id 17 
     name lclavicle
     direction 0.948974 0.284245 -0.136574  
     length 3.3483  
     axis 0 0 0   XYZ
    dof ry rz
    limits (-20.0 10.0)
           (0.0 20.0)
  end
  begin
     id 18 
     name lhumerus
     direction 1 -4.48961e-011 1.68576e-027   
     length 4.93485   
     axis -180 -30 -90   XYZ
    dof rx ry rz
    limits (-60.0 90.0)
           (-90.0 90.0)
           (-90.0 90.0)
  end
  begin
     id 19
     name lradius
     direction 1 -4.48965e-011 -2.46405e-027   
     length 3.41719   
     axis -180 -30 -90   XYZ
    dof rx
    limits (-10.0 170.0)
  end
  begin
     id 20
     name lwrist
     direction 1 -4.48968e-011 -8.00486e-028   
     length 1.7086   
     axis 3.27501e-015 90 90   XYZ
    dof ry
    limits (-180.0 0.0)
 end
  begin
     id 21 
     name lhand
     direction 1 -4.48977e-011 -1.60161e-027   
     length 0.6241   
     axis 1.02148e-015 90 90   XYZ
    dof rx rz
    limits (-90.0 90.0)
           (-45.0 45.0)
  end
  begin
     id 22 
     name lfingers
     direction 1 -4.49049e-011 -3.21275e-027   
     length 0.503166   
     axis 2.04295e-015 90 90   XYZ
    dof rx
    limits (0.0 90.0)
  end
  begin
     id 23
     name lthumb
     direction 0.707107 -6.34975e-011 0.707107   
     length 0.722448   
     axis -90 45 -1.62303e-014   XYZ
    dof rx rz
    limits (-45.0 45.0)
           (-45.0 45.0)
  end
  begin
     id 24 
     name rclavicle
     direction -0.904485 0.355099 -0.236246   
     length 3.18329  
     axis 0 0 0   XYZ 
    dof ry rz
    limits (-10.0 20.0)
           (-20.0 0.0)
  end
  begin
     id 25 
     name rhumerus
     direction -1 -4.48953e-011 1.32816e-027  
     length 5.22034   
     axis -180 30 90   XYZ
    dof rx ry rz
    limits (-90.0 60.0)
           (-90.0 90.0)
           (-90.0 90.0)
  end
  begin
     id 26 
     name rradius
     direction -1 -4.48965e-011 -3.93727e-027   
     length 3.41809   
     axis -180 30 90   XYZ
    dof rx
    limits (-10.0 170.0)
  end
  begin
     id 27 
     name rwrist
     direction -1 -4.48962e-011 -8.003e-028   
     length 1.70904   
     axis 3.27501e-015 -90 -90   XYZ
    dof ry
    limits (-180.0 0.0)
  end
  begin
     id 28
     name rhand
     direction -1 -4.49008e-011 -1.60365e-027   
     length 0.77534   
     axis 1.02148e-015 -90 -90   XYZ
    dof rx rz
    limits (-90.0 90.0)
           (-45.0 45.0)
  end
  begin
     id 29
     name rfingers
     direction -1 -4.49001e-011 -3.2064e-027   
     length 0.625099   
     axis 2.04295e-015 -90 -90   XYZ
    dof rx
    limits (0.0 90.0)
  end
  begin
     id 30
     name rthumb
     direction -0.707107 -6.34989e-011 0.707107   
     length 0.897521   
     axis -90 -45 1.62303e-014   XYZ
    dof rx rz
    limits (-45.0 45.0)
           (-45.0 45.0)
  end
:hierarchy
  begin
    root lhipjoint rhipjoint lowerback
    lhipjoint lfemur
    lfemur ltibia
    ltibia lfoot
    lfoot ltoes
    rhipjoint rfemur
    rfemur rtibia
    rtibia rfoot
    rfoot rtoes
    lowerback upperback
    upperback thorax
    thorax lowerneck lclavicle rclavicle
    lowerneck upperneck
    upperneck head
    lclavicle lhumerus
    lhumerus lradius
    lradius lwrist
    lwrist lhand lthumb
    lhand lfingers
    rclavicle rhumerus
    rhumerus rradius
    rradius rwrist
    rwrist rhand rthumb
    rhand rfingers
  end

#!OML:ASF \\sashay\E\Suitcase\Project 1\Capture day 1\Session 1\Male1.ASF
:FULLY-SPECIFIED
:DEGREES
237
root 1.09803 17.6447 -37.1343 8.16238 -13.3927 5.4227
lowerback 37.8949 -2.06659 11.5151
upperback 10.9427 2.7915 14.2568
thorax -6.83809 0.94413 8.30921
lowerneck -9.57541 -9.06038 -7.11421
upperneck 13.5401 -10.8716 -2.28557
head 5.94528 -5.7819 -0.47017
rclavicle 7.31528e-014 1.47896e-013
rhumerus 2.66953 7.32967 -50.437
rradius 27.5178
rwrist -14.0837
rhand -18.4903 15.2961
rfingers 7.12502
rthumb 7.79712 -14.5401
lclavicle 7.31528e-014 1.47896e-013
lhumerus -31.1992 -13.5263 101.704
lradius 64.3667
lwrist 7.21881
lhand -8.21054 41.3385
lfingers 7.12502
lthumb 17.7062 70.5523
rfemur -26.0793 5.93863 13.3387
rtibia 31.0357
rfoot -13.8502 -3.36712
rtoes 13.9894
lfemur -22.5717 0.0815035 -20.2661
ltibia 32.0595
lfoot -11.7216 3.95723
ltoes -8.48273
238
root 1.08615 17.6464 -37.1046 8.02688 -13.3807 5.04919
lowerback 37.8449 -2.19492 11.5769
upperback 10.8024 2.66776 14.1927
thorax -6.95563 0.884169 8.25717
lowerneck -8.89529 -8.94151 -7.48512
upperneck 13.0461 -10.7546 -2.05386
head 5.70671 -5.71998 -0.286478
rclavicle -7.63333e-014 -6.36111e-015
rhumerus 2.19657 7.42768 -50.9948
rradius 27.1659
rwrist -13.5559
rhand -18.5261 17.0497
rfingers 7.12502
rthumb 7.76253 -12.7878
lclavicle -7.63333e-014 -6.36111e-015
lhumerus -31.5712 -13.1096 101.574
lradius 64.0649
lwrist 7.11348
lhand -8.37903 40.7834
lfingers 7.12502
lthumb 17.5441 70.0118
rfemur -25.5925 5.99807 13.7936
rtibia 30.7866
rfoot -13.8174 -3.23615
rtoes 14.8303
lfemur -22.528 0.122281 -19.8717
ltibia 32.633
lfoot -11.3761 4.23355
ltoes -9.02305
239
root 1.06965 17.6638 -37.0714 7.99564 -13.2487 4.8491
lowerback 37.2545 -2.16888 11.9769
upperback 10.8306 2.6919 13.9029
thorax -6.65326 0.918351 7.70594
lowerneck -9.61487 -9.02252 -6.77869
upperneck 13.485 -10.8461 -2.44477
head 5.90464 -5.76471 -0.565463
rclavicle -1.59028e-014 1.01778e-013
rhumerus 0.853102 7.03615 -51.4823
rradius 28.0303
rwrist -13.6193
rhand -18.6884 16.2773
rfingers 7.12502
rthumb 7.60589 -13.566
lclavicle -1.59028e-014 1.01778e-013
lhumerus -31.3639 -13.906 101.253
lradius 63.5496
lwrist 7.18704
lhand -8.19089 40.9932
lfingers 7.12502
lthumb 17.7252 70.2053
rfemur -25.1571 5.89114 14.0977
rtibia 30.45
rfoot -13.9048 -3.20291
rtoes 14.9135
lfemur -22.666 0.13497 -19.6747
ltibia 33.3999
lfoot -11.6056 4.25362
ltoes -8.42838
240
root 1.05287 17.6577 -37.0449 8.08845 -13.4774 4.63534
lowerback 36.7481 -2.05758 11.7648
upperback 10.8526 2.63444 13.7646
thorax -6.45817 0.903921 7.66705
lowerneck -10.1786 -8.88265 -6.51825
upperneck 13.9225 -10.5732 -2.9488
head 6.09144 -5.6663 -0.775904
rclavicle -9.54166e-014 7.63333e-014
rhumerus 0.316048 7.05402 -52.0677
rradius 28.1318
rwrist -13.3675
rhand -18.7402 16.3361
rfingers 7.12502
rthumb 7.55593 -13.509
lclavicle -9.54166e-014 7.63333e-014
lhumerus -31.3094 -13.7753 101.01
lradius 63.0675
lwrist 7.0046
lhand -8.08284 41.0036
lfingers 7.12502
lthumb 17.8291 70.2063
rfemur -24.9633 6.18885 14.3355
rtibia 30.1091
rfoot -13.8367 -3.31086
rtoes 15.5194
lfemur -23.0546 0.155175 -19.4353
ltibia 34.2485
lfoot -11.6697 4.61995
ltoes -5.10435
241
root 1.02796 17.6485 -37.044 7.99653 -13.1398 3.56721
lowerback 37.2703 -2.3882 12.3433
upperback 10.4882 2.62097 13.9048
thorax -7.001 0.869751 7.55952
lowerneck -9.9718 -8.60646 -6.60448
upperneck 14.0508 -10.1519 -3.27953
head 6.07949 -5.49607 -0.821606
rclavicle -3.18055e-015 -2.24229e-013
rhumerus -0.572717 7.42704 -52.6553
rradius 28.2518
rwrist -13.3103
rhand -18.9876 17.0722
rfingers 7.12502
rthumb 7.31715 -12.7813
lclavicle -3.18055e-015 -2.24229e-013
lhumerus -31.7407 -13.2844 100.923
lradius 62.7191
lwrist 6.95243
lhand -8.50033 40.5024
lfingers 7.12502
lthumb 17.4274 69.7411
rfemur -24.3574 6.75637 15.6165
rtibia 29.7623
rfoot -13.7619 -4.10512
rtoes 15.1813
lfemur -23.2918 0.413613 -18.2224
ltibia 35.0106
lfoot -11.2671 4.29999
ltoes -7.30786
242
root 1.00215 17.6478 -37.0207 7.92481 -13.1709 2.90603
lowerback 37.2281 -2.39208 12.533
upperback 10.3844 2.69002 13.8869
thorax -7.08623 0.897167 7.41883
lowerneck -9.32933 -8.54581 -6.76547
upperneck 13.4558 -10.1604 -2.92763
head 5.80912 -5.47063 -0.641116
rclavicle -1.59028e-014 5.88403e-014
rhumerus -1.56876 7.7597 -53.2007
rradius 28.7459
rwrist -13.3487
rhand -19.375 16.8459
rfingers 7.12502
rthumb 6.94318 -13.0202
lclavicle -1.59028e-014 5.88403e-014
lhumerus -32.0178 -13.1663 100.756
lradius 62.3556
lwrist 6.50855
lhand -8.54315 40.2397
lfingers 7.12502
lthumb 17.3862 69.4821
rfemur -23.8805 6.94468 16.4796
rtibia 29.5252
rfoot -13.671 -4.27616
rtoes 14.8052
lfemur -23.3151 0.713086 -17.4956
ltibia 35.7615
lfoot -11.2327 4.02377
ltoes -7.58763
243
root 0.991214 17.6627 -36.9517 7.37243 -13.1755 3.49183
lowerback 36.6489 -2.44259 12.0616
upperback 10.4391 2.30679 13.5203
thorax -6.81293 0.746045 7.37816
lowerneck -10.016 -8.46006 -6.37243
upperneck 14.2034 -9.92484 -3.68358
head 6.09926 -5.40977 -0.967309
rclavicle -9.54166e-015 3.81667e-014
rhumerus -2.34951 8.01733 -53.6909
rradius 28.8303
rwrist -13.5436
rhand -19.3593 16.8833
rfingers 7.12502
rthumb 6.95836 -12.9823
lclavicle -9.54166e-015 3.81667e-014
lhumerus -32.1944 -13.076 100.661
lradius 62.0081
lwrist 6.37953
lhand -8.46436 40.4907
lfingers 7.12502
lthumb 17.462 69.7264
rfemur -22.931 6.21038 15.96
rtibia 29.2473
rfoot -14.0035 -3.34883
rtoes 15.3801
lfemur -22.8563 0.638264 -18.2512
ltibia 36.3236
lfoot -11.3763 4.30704
ltoes -6.78272
244
root 0.978858 17.6603 -36.9186 7.26218 -13.2729 3.22176
lowerback 36.2874 -2.43755 12.0653
upperback 10.4093 2.23086 13.3557
thorax -6.69988 0.720266 7.213
lowerneck -9.58913 -8.35346 -6.6115
upperneck 13.8095 -9.8386 -3.31427
head 5.9324 -5.34421 -0.778138
rclavicle -3.49861e-014 1.09729e-013
rhumerus -3.30513 8.00816 -54.305
rradius 29.3372
rwrist -13.3212
rhand -19.1932 16.985
rfingers 7.12502
rthumb 7.11869 -12.8753
lclavicle -3.49861e-014 1.09729e-013
lhumerus -32.362 -13.0336 100.479
lradius 61.6439
lwrist 6.08859
lhand -8.43298 40.677
lfingers 7.12502
lthumb 17.4922 69.91
rfemur -22.5062 5.97465 16.3426
rtibia 28.9966
rfoot -13.8807 -3.14115
rtoes 16.0378
lfemur -22.8177 0.861206 -18.0318
ltibia 36.8897
lfoot -11.1307 4.40045
ltoes -6.41172
245
root 0.952062 17.6613 -36.8763 6.93793 -13.1885 3.05392
lowerback 36.1307 -2.48411 11.8447
upperback 10.3427 2.07821 13.2965
thorax -6.72598 0.651947 7.31305
lowerneck -9.52459 -8.22796 -6.55191
upperneck 13.8045 -9.6526 -3.53806
head 5.90332 -5.26887 -0.836807
rclavicle 1.59028e-014 1.59028e-014
rhumerus -4.17932 8.6414 -54.7802
rradius 29.7731
rwrist -13.8671
rhand -19.4684 16.8032
rfingers 7.12502
rthumb 6.853 -13.0659
lclavicle 1.59028e-014 1.59028e-014
lhumerus -32.6349 -12.785 100.364
lradius 61.3599
lwrist 6.08329
lhand -8.09229 41.1479
lfingers 7.12502
lthumb 17.82 70.3514
rfemur -21.7342 5.94 16.6748
rtibia 28.7098
rfoot -14.12 -3.12951
rtoes 14.8312
lfemur -22.6427 1.05207 -17.8857
ltibia 37.3146
lfoot -10.5508 4.52082
ltoes -7.93017
246
root 0.934044 17.6684 -36.8453 6.79721 -13.1222 2.7123
lowerback 35.8894 -2.55493 11.952
upperback 10.2547 1.98407 13.1478
thorax -6.71101 0.613661 7.125
lowerneck -10.1654 -8.05657 -6.17341
upperneck 14.3407 -9.3276 -4.12756
head 6.13079 -5.15193 -1.09331
rclavicle 2.8625e-014 -1.59028e-014
rhumerus -4.81441 8.27591 -55.581
rradius 29.7245
rwrist -13.5896
rhand -19.4992 16.6682
rfingers 7.12502
rthumb 6.82325 -13.2019
lclavicle 2.8625e-014 -1.59028e-014
lhumerus -32.707 -12.7822 100.2
lradius 60.8705
lwrist 5.97121
lhand -8.3418 41.0907
lfingers 7.12502
lthumb 17.5799 70.3159
rfemur -21.2398 5.62635 17.216
rtibia 28.4768
rfoot -13.9189 -3.06225
rtoes 14.8145
lfemur -22.6078 0.858579 -17.4395
ltibia 38.0177
lfoot -10.4754 4.60583
ltoes -5.9918
247
root 0.912768 17.679 -36.809 6.75053 -13.1182 2.36527
lowerback 35.6144 -2.64269 12.0115
upperback 10.0908 1.85661 12.9612
thorax -6.76886 0.558235 6.9321
lowerneck -10.2155 -7.92388 -6.18113
upperneck 14.35 -9.171 -3.91132
head 6.15138 -5.06079 -1.01387
rclavicle 4.77083e-014 3.18055e-015
rhumerus -5.71563 8.45063 -56.3328
rradius 29.8159
rwrist -13.4735
rhand -19.4857 17.3357
rfingers 7.12502
rthumb 6.83628 -12.5339
lclavicle 4.77083e-014 3.18055e-015
lhumerus -33.0132 -12.4562 99.9339
lradius 60.4457
lwrist 5.71022
lhand -8.24178 41.2138
lfingers 7.12502
lthumb 17.6762 70.4304
rfemur -20.7454 5.70087 17.6641
rtibia 28.2137
rfoot -14.2029 -3.03216
rtoes 14.1998
lfemur -22.7249 1.03126 -17.0608
ltibia 38.6574
lfoot -10.3198 4.62961
ltoes -6.00297
248
root 0.890353 17.6653 -36.7742 6.51516 -13.1771 2.11153
lowerback 35.4117 -2.68064 11.9183
upperback 10.0128 1.7395 12.8174
thorax -6.77417 0.507598 6.85978
lowerneck -9.756 -7.63065 -6.30559
upperneck 13.7735 -8.81128 -3.89242
head 5.89411 -4.88039 -0.921072
rclavicle 6.67916e-014 9.54166e-015
rhumerus -6.51314 8.52717 -57.0547
rradius 30.0712
rwrist -13.4781
rhand -19.5976 16.7915
rfingers 7.12502
rthumb 6.72831 -13.0816
lclavicle 6.67916e-014 9.54166e-015
lhumerus -33.0764 -12.3095 99.7779
lradius 59.8889
lwrist 5.60846
lhand -8.28069 40.4342
lfingers 7.12502
lthumb 17.6387 69.6541
rfemur -20.188 5.54002 18.0641
rtibia 28.0248
rfoot -14.0358 -2.86079
rtoes 14.8655
lfemur -22.5822 1.2108 -16.7829
ltibia 39.4312
lfoot -10.2268 4.67588
ltoes -5.74927
249
root 0.867216 17.6592 -36.7381 6.39383 -13.3597 1.79612
lowerback 35.2123 -2.59039 11.829
upperback 9.86152 1.79307 12.6432
thorax -6.8691 0.534895 6.68923
lowerneck -9.51368 -7.70286 -6.13032
upperneck 13.8668 -8.94478 -3.94598
head 5.87235 -4.93988 -0.966944
rclavicle 2.54444e-014 2.8625e-014
rhumerus -7.63508 8.43854 -57.8144
rradius 30.4136
rwrist -13.7337
rhand -19.5095 16.5311
rfingers 7.12502
rthumb 6.81334 -13.3393
lclavicle 2.54444e-014 2.8625e-014
lhumerus -33.3422 -12.2024 99.5751
lradius 59.4031
lwrist 5.36454
lhand -7.681 40.6046
lfingers 7.12502
lthumb 18.2158 69.7716
rfemur -19.6646 5.63587 18.4932
rtibia 27.7112
rfoot -14.1463 -2.77103
rtoes 13.477
lfemur -22.6565 1.60012 -16.511
ltibia 40.1865
lfoot -9.91599 4.99711
ltoes -8.55983
250
root 0.85586 17.6576 -36.7016 6.30767 -13.0665 1.55795
lowerback 34.8063 -2.7592 12.01
upperback 9.67523 1.59437 12.499
thorax -6.89425 0.448975 6.50497
lowerneck -10.1641 -7.53463 -5.82181
upperneck 14.5488 -8.62887 -4.37865
head 6.16318 -4.82262 -1.16934
rclavicle 6.36111e-015 -3.18055e-015
rhumerus -8.31626 8.5724 -58.4259
rradius 30.3276
rwrist -13.7233
rhand -19.8339 16.4053
rfingers 7.12502
rthumb 6.50013 -13.4749
lclavicle 6.36111e-015 -3.18055e-015
lhumerus -33.594 -12.0773 99.5096
lradius 59.0131
lwrist 5.14512
lhand -7.48832 40.8891
lfingers 7.12502
lthumb 18.4011 70.0388
rfemur -19.1916 5.21228 18.8333
rtibia 27.4597
rfoot -14.3131 -2.67266
rtoes 14.4049
lfemur -22.8361 1.47556 -16.2537
ltibia 41.0293
lfoot -9.68763 5.05408
ltoes -8.01895
